<?xml version="1.0" standalone="no"?><!DOCTYPE svg PUBLIC "-//W3C//DTD SVG 1.1//EN" "http://www.w3.org/Graphics/SVG/1.1/DTD/svg11.dtd"><svg t="1586424732455" class="icon" viewBox="0 0 1024 1024" version="1.1" xmlns="http://www.w3.org/2000/svg" p-id="5901" xmlns:xlink="http://www.w3.org/1999/xlink" width="250" height="250"><defs><style type="text/css"></style></defs><path d="M239.115865 1.825312c-131.051922 0-237.290553 106.238631-237.290553 237.290553s106.238631 237.290553 237.290553 237.290553l237.290553 0 0-237.290553C476.406417 108.063943 370.167786 1.825312 239.115865 1.825312zM403.393939 403.393939l-164.278075 0c-90.588406 0-164.278075-73.689668-164.278075-164.278075s73.689668-164.278075 164.278075-164.278075 164.278075 73.689668 164.278075 164.278075L403.393939 403.393939z" p-id="5902"></path><path d="M1024 239.115865c0-131.051922-106.238631-237.290553-237.290553-237.290553s-237.290553 106.238631-237.290553 237.290553l0 237.290553 237.290553 0C917.761369 476.406417 1024 370.167786 1024 239.115865zM622.431373 239.115865c0-90.588406 73.689668-164.278075 164.278075-164.278075s164.278075 73.689668 164.278075 164.278075-73.689668 164.278075-164.278075 164.278075l-164.278075 0L622.431373 239.115865z" p-id="5903"></path><path d="M1.825312 786.709447c0 131.051922 106.238631 237.290553 237.290553 237.290553s237.290553-106.238631 237.290553-237.290553l0-237.290553-237.290553 0C108.063943 549.418895 1.825312 655.657526 1.825312 786.709447zM403.393939 786.709447c0 90.588406-73.689668 164.278075-164.278075 164.278075s-164.278075-73.689668-164.278075-164.278075 73.689668-164.278075 164.278075-164.278075l164.278075 0L403.393939 786.709447z" p-id="5904"></path><path d="M786.709447 549.418895l-237.290553 0 0 237.290553c0 131.051922 106.238631 237.290553 237.290553 237.290553s237.290553-106.238631 237.290553-237.290553S917.761369 549.418895 786.709447 549.418895zM786.709447 950.987522c-90.588406 0-164.278075-73.689668-164.278075-164.278075l0-164.278075 164.278075 0c90.588406 0 164.278075 73.689668 164.278075 164.278075S877.297854 950.987522 786.709447 950.987522z" p-id="5905"></path></svg>