<?xml version="1.0" standalone="no"?><!DOCTYPE svg PUBLIC "-//W3C//DTD SVG 1.1//EN" "http://www.w3.org/Graphics/SVG/1.1/DTD/svg11.dtd"><svg class="icon" width="200px" height="200.00px" viewBox="0 0 1024 1024" version="1.1" xmlns="http://www.w3.org/2000/svg"><path d="M138.51 457.11l4.24 127.04 87.18 87.18 91.33-107.11 78.87 100.81 99.64-100.81 95.48 107.11 83.02-107.11 102.1 115.41 93.02-111.26 11.19-111.26H138.51z" fill="#FDD668" /><path d="M915.86 890.38V425.82H811.64v-153h-62.55v153H542.81v-153h-62.55v153H274v-153h-62.56v153H107.23v464.56H8.55v62.55h1009v-62.55z m-62.55-402v61.92l-67.39 85.4-91.52-116-91.48 116-91.49-116L420 635.68l-91.46-116-91.43 116-67.29-85.37v-61.94z m-683.53 402V634l67.29 85.36 91.43-116 91.46 116 91.47-116 91.49 116 91.48-116 91.52 116L853.31 634v256.38z"  /><path d="M245.94 155.62m-52.58 0a52.58 52.58 0 1 0 105.16 0 52.58 52.58 0 1 0-105.16 0Z"  /><path d="M513.15 155.62m-52.58 0a52.58 52.58 0 1 0 105.16 0 52.58 52.58 0 1 0-105.16 0Z"  /><path d="M780.37 155.62m-52.58 0a52.58 52.58 0 1 0 105.16 0 52.58 52.58 0 1 0-105.16 0Z"  /></svg>