<?xml version="1.0" standalone="no"?><!DOCTYPE svg PUBLIC "-//W3C//DTD SVG 1.1//EN" "http://www.w3.org/Graphics/SVG/1.1/DTD/svg11.dtd"><svg class="icon" width="200px" height="200.00px" viewBox="0 0 1024 1024" version="1.1" xmlns="http://www.w3.org/2000/svg"><path d="M0 511.787a511.787 511.787 0 1 0 1023.574 0A511.787 511.787 0 1 0 0 511.787z" fill="#4934E6" /><path d="M167.184 388.531l-11.942 2.986c-2.559 0.853-4.691 2.559-5.544 5.118l-4.265 11.515c-2.133 6.397-10.662 7.25-14.5 1.706l-6.825-10.236c-1.28-2.132-3.838-3.412-6.397-3.838l-12.368-0.427c-6.824 0-10.236-8.103-5.971-13.22l7.677-9.81c1.706-2.133 2.132-4.692 1.28-7.25l-3.413-11.942c-1.706-6.397 4.265-12.368 10.663-9.81l11.515 4.266c2.559 0.852 5.118 0.426 7.677-0.853l10.235-6.824c5.545-3.839 13.221 0.426 12.795 7.25l-0.853 12.368c0 2.56 0.853 5.118 2.985 6.824l9.81 7.677c5.544 4.265 3.838 12.794-2.56 14.5z m739.105 82.313l-11.089-5.545c-2.559-1.279-5.118-1.279-7.676 0l-10.663 5.971c-5.97 2.986-12.794-1.706-11.941-8.53l2.132-12.368c0.427-2.559-0.426-5.118-2.559-7.25l-8.956-8.53c-4.692-4.691-2.133-12.794 4.265-13.647l12.368-2.133c2.559-0.426 4.691-2.132 5.97-4.691l5.119-11.089c2.985-5.97 11.515-5.97 14.5 0l5.545 11.089c1.28 2.559 3.412 3.838 5.97 4.265l12.369 1.706c6.823 0.853 9.382 8.956 4.691 13.647l-8.53 8.53c-1.706 1.706-2.559 4.691-2.132 7.25l2.132 11.942c1.28 7.677-5.544 12.795-11.515 9.383zM800.946 740.81l-11.515-8.956c-2.559-1.706-5.97-2.559-8.956-1.28l-14.074 4.692c-7.677 2.559-14.501-4.691-11.942-12.368l4.691-13.648c0.853-2.985 0.427-6.397-1.28-8.956l-8.529-11.942c-4.691-6.397 0-15.353 8.103-15.353l14.501 0.426c2.985 0 5.97-1.28 8.103-3.838l8.53-11.942c4.691-6.397 14.5-4.691 17.06 2.985l4.265 14.075c0.853 2.985 3.411 5.544 6.397 6.397l14.074 4.691c7.677 2.56 8.956 12.368 2.559 17.06l-11.942 8.53c-2.559 1.706-4.265 4.691-4.265 8.103v14.5c-0.426 6.824-9.809 11.516-15.78 6.824zM241.82 161.64l-6.824-5.118c-1.279-1.279-3.411-1.279-5.117-0.853l-8.104 2.56c-4.691 1.279-8.53-2.986-7.25-7.25l2.985-8.104c0.427-1.706 0.427-3.839-0.853-5.118l-5.117-7.25c-2.986-3.839 0-9.383 4.69-8.957h8.53c1.707 0 3.84-0.853 4.692-2.559l5.118-7.25c2.985-3.838 8.53-2.985 10.236 1.706l2.559 8.53c0.426 1.706 2.132 3.412 3.838 3.838l8.103 2.56c4.692 1.279 5.545 7.25 1.28 10.235l-7.25 5.118c-1.707 1.28-2.56 2.985-2.56 4.691v8.53c0.427 5.118-5.117 7.677-8.956 4.691z m627.792 97.666l-11.942 2.986c-2.559 0.853-4.691 2.559-5.544 5.118l-4.265 11.515c-2.132 6.397-10.662 7.25-14.5 1.706l-6.824-10.236c-1.28-2.132-3.839-3.412-6.398-3.838l-12.368-0.427c-6.824 0-10.236-8.103-5.97-13.221l7.676-9.81c1.706-2.132 2.132-4.69 1.28-7.25l-3.412-11.941c-1.706-6.398 4.264-12.368 10.662-9.81l11.515 4.265c2.559 0.853 5.118 0.427 7.677-0.853l10.236-6.823c5.544-3.839 13.22 0.426 12.794 7.25l-0.853 12.368c0 2.559 0.853 5.118 2.986 6.824l9.809 7.677c5.544 4.691 3.838 12.794-2.559 14.5z m-680.676 402.18l-10.236 2.558c-2.133 0.427-3.839 2.133-4.692 4.265l-3.411 9.81c-1.706 5.544-8.957 6.397-12.369 1.279l-5.544-8.956c-1.28-1.706-3.412-2.986-5.544-2.986l-10.663-0.426c-5.544 0-8.53-6.824-5.117-11.089l6.397-8.103c1.28-1.706 1.706-4.265 1.28-6.398l-2.986-10.235c-1.706-5.545 3.838-10.236 8.956-8.53l9.81 3.838c2.132 0.853 4.69 0.427 6.397-0.853l8.53-5.97c4.691-3.412 11.088 0.426 10.662 5.97l-0.427 10.663c0 2.132 0.853 4.264 2.56 5.97l8.103 6.398c5.117 4.265 3.838 11.515-1.706 12.794z m81.033-285.748c-5.118 0-9.383-4.265-9.383-9.383v-27.722c0-5.118 4.265-9.383 9.383-9.383 5.117 0 9.382 4.265 9.382 9.383v27.722c0 5.118-4.265 9.383-9.382 9.383z m0 73.782c-5.118 0-9.383-4.265-9.383-9.382v-27.722c0-5.118 4.265-9.383 9.383-9.383 5.117 0 9.382 4.265 9.382 9.383v27.722c0 5.544-4.265 9.382-9.382 9.382z m50.752-50.752h-27.722c-5.118 0-9.383-4.265-9.383-9.383 0-5.117 4.265-9.382 9.383-9.382h27.722c5.118 0 9.382 4.265 9.382 9.382 0 5.545-4.264 9.383-9.382 9.383z m-73.783 0h-27.722c-5.118 0-9.382-4.265-9.382-9.383 0-5.117 4.264-9.382 9.382-9.382h27.722c5.118 0 9.383 4.265 9.383 9.382 0 5.545-4.265 9.383-9.383 9.383zM768.533 522.45c-5.118 0-9.383-4.265-9.383-9.383v-27.722c0-5.117 4.265-9.382 9.383-9.382s9.383 4.265 9.383 9.382v27.722c0 5.545-4.265 9.383-9.383 9.383z m0 74.21c-5.118 0-9.383-4.266-9.383-9.384v-27.721c0-5.118 4.265-9.383 9.383-9.383s9.383 4.265 9.383 9.383v27.721c0 5.118-4.265 9.383-9.383 9.383z m50.752-50.753h-27.721c-5.118 0-9.383-4.265-9.383-9.383s4.265-9.383 9.383-9.383h27.721c5.118 0 9.383 4.265 9.383 9.383s-4.265 9.383-9.383 9.383z m-73.782 0H717.78c-5.118 0-9.383-4.265-9.383-9.383s4.265-9.383 9.383-9.383h27.722c5.118 0 9.382 4.265 9.382 9.383s-4.264 9.383-9.382 9.383z" fill="#5D74FD" /><path d="M398.34 883.259L72.504 542.494l90.842-90.842 234.57 234.569 462.313-453.785 90.842 90.843-552.73 559.98z" fill="#FFFFFF" /><path d="M831.227 64.826L722.472 339.912l-45.634-17.913-17.486-6.824L768.107 40.09c6.823-17.486 26.442-26.016 43.928-19.192 3.838 1.28 6.824 3.412 9.81 5.97 10.661 8.957 14.926 23.884 9.382 37.958z" fill="#E5BFA3" /><path d="M831.227 64.826L722.472 339.912l-45.634-17.913L785.166 47.767c5.971-14.927 21.325-23.457 36.678-20.898 10.662 8.956 14.927 23.883 9.383 37.957z" fill="#F9D6B9" /><path d="M722.899 339.912l-63.12-25.163-72.077 116.431 53.31 113.02z" fill="#34ABE0" /><path d="M597.511 952.35H352.706c-26.015 0-47.34-21.325-47.34-47.34v-351h177.42L597.51 952.35z" fill="#F9D6B9" /><path d="M339.059 905.01v-351h-33.266v351c0 26.015 21.324 47.34 47.34 47.34h33.266c-26.442 0-47.34-20.898-47.34-47.34z" fill="#E5BFA3" /><path d="M305.793 622.674h284.041v22.604H305.793z" fill="#279FC9" /><path d="M641.013 428.621v194.053h-335.22v-68.665c0-67.812 53.737-123.255 121.122-125.388h214.098z" fill="#34ABE0" /><path d="M641.013 501.551v367.634H373.178V501.55c0-33.693 22.604-61.84 53.737-70.37 6.398-1.707 12.795-2.56 19.619-2.56h121.55c6.823 0 13.22 0.853 19.618 2.56 30.707 8.53 53.31 37.104 53.31 70.37z" fill="#34ABE0" /><path d="M659.778 314.749l-57.15 89.563c-9.382 14.927-26.015 23.883-43.927 23.883H426.062v5.97c0 44.356 35.4 81.46 79.327 81.887 36.678 0.426 67.812-23.884 78.048-57.576 19.618-8.957 35.398-24.31 45.208-43.502l47.34-92.975-16.207-7.25z" fill="#279FC9" /><path d="M474.682 428.621h4.692-52.885c-67.385 2.56-121.123 57.576-121.123 125.388v68.665h48.193v-68.665c0-67.812 54.164-122.829 121.123-125.388z" fill="#279FC9" /><path d="M566.377 372.751v63.547c0 32.413-26.442 58.856-58.855 58.856s-58.856-26.443-58.856-58.856v-63.547h117.711zM342.897 268.688a36.678 36.678 0 1 0 73.356 0 36.678 36.678 0 1 0-73.356 0zM597.938 268.688a36.678 36.678 0 1 0 73.356 0 36.678 36.678 0 1 0-73.356 0z" fill="#E5BFA3" /><path d="M638.88 164.625L375.737 150.55v146.712c0 72.503 58.855 131.358 131.358 131.358s131.359-58.855 131.359-131.358l0.426-132.638z" fill="#F9D6B9" /><path d="M507.095 309.204c-7.25 0-13.22-5.97-13.22-13.22v-104.49h26.442v104.49c0 7.25-5.971 13.22-13.222 13.22z m-78.9-11.941V153.536l-52.458-2.985v146.712c0 72.503 58.855 131.358 131.358 131.358 8.957 0 17.913-0.853 26.443-2.559-60.135-11.941-105.343-65.252-105.343-128.8z" fill="#E5BFA3" /><path d="M654.66 159.933v66.106c0 5.545-2.132 10.236-5.544 13.648-3.838 3.838-8.53 5.97-14.074 5.544-10.662-0.426-19.192-9.383-19.192-20.045v-9.81c0-8.102-3.412-14.926-8.53-20.47a29.001 29.001 0 0 0-20.471-8.53c-12.368 0-24.31 4.265-34.12 11.941-12.367 10.236-28.574 16.207-45.634 16.207-17.486 0-33.266-5.97-45.634-16.207l-5.118-3.838c-3.412-2.132-6.824-3.838-10.662-5.118-5.97-2.132-11.942-2.985-17.913-2.985-15.78 0-28.574 12.794-28.574 28.574v11.09c0 5.544-2.133 10.235-5.545 13.647-3.412 3.412-8.53 5.544-13.647 5.544-10.663 0-19.619-8.53-19.619-19.618v-65.68c0-58.002 46.914-104.916 104.916-104.916h84.872c57.576-0.426 104.49 46.914 104.49 104.916z" fill="#5C5E70" /><path d="M533.111 54.59c-58.002 0-104.916 46.914-104.916 104.917v27.295h-0.427c-15.78 0-28.574 12.795-28.574 28.575v10.662c0 5.545-2.133 10.236-5.545 13.648-3.412 3.412-8.53 5.544-13.647 5.544-10.663 0-19.619-8.53-19.619-19.618v-65.68c0-58.002 46.914-104.916 104.916-104.916l67.812-0.426z" fill="#474A59" /><path d="M641.013 869.611v137.756c-37.958 9.81-77.195 15.354-117.711 16.207v-55.018c0-4.264-1.706-8.53-4.691-11.515-2.986-2.985-6.824-4.691-11.516-4.691-8.956 0-16.206 7.25-16.206 16.206v54.591c-40.517-1.706-80.18-8.103-117.711-18.339V869.611h267.835z" fill="#5C5E70" /><path d="M553.583 982.63v39.664c-9.81 0.853-20.045 1.28-30.281 1.706v-55.017c0-4.265-1.706-8.53-4.691-11.515-2.986-2.986-6.824-4.692-11.516-4.692h16.207c16.633-0.426 30.28 13.222 30.28 29.855zM403.459 869.612v142.447c-10.236-2.132-20.045-4.691-30.281-7.25V869.611h30.28z" fill="#474A59" /><path d="M373.178 572.348v296.837h31.987v-264.85c0-17.486-14.501-31.987-31.987-31.987z" fill="#279FC9" /><path d="M556.568 323.279c0 4.691-0.853 9.382-2.132 14.074-2.133 6.824-5.545 12.794-10.236 17.912-8.53 9.383-20.898 15.354-34.546 15.354-13.647 0-26.016-5.97-34.545-15.354-4.692-5.118-8.53-11.088-10.236-17.912-1.28-4.265-2.132-8.956-2.132-14.074h93.827z" fill="#FFFFFF" /><path d="M587.702 271.673c0-13.22-10.662-23.883-23.884-23.883-13.22 0-23.883 10.662-23.883 23.883m-65.253 0c0-13.22-10.662-23.883-23.883-23.883-13.221 0-23.884 10.662-23.884 23.883" fill="#5C5E70" /><path d="M848.713 52.458c0 29.001-23.457 52.885-52.885 52.885-2.985 0-5.97-0.427-8.956-0.853-24.736-4.265-43.502-26.016-43.502-52.032C743.37 23.457 766.827 0 795.828 0c17.06 0 32.414 8.103 41.796 20.898 7.25 8.53 11.089 19.618 11.089 31.56z" fill="#E5BFA3" /><path d="M848.713 52.458c0 29.001-23.457 52.885-52.885 52.885-2.985 0-5.97-0.427-8.956-0.853-6.824-8.956-10.662-20.045-10.662-31.987 0-29.001 23.457-52.458 52.458-52.458 2.985 0 5.97 0.426 8.956 0.853 7.25 8.53 11.089 19.618 11.089 31.56z" fill="#F9D6B9" /><path d="M651.675 330.529l63.973 26.442 7.25-17.06-63.12-25.162" fill="#279FC9" /></svg>