<?xml version="1.0" standalone="no"?><!DOCTYPE svg PUBLIC "-//W3C//DTD SVG 1.1//EN" "http://www.w3.org/Graphics/SVG/1.1/DTD/svg11.dtd"><svg class="icon" width="200px" height="200.00px" viewBox="0 0 1024 1024" version="1.1" xmlns="http://www.w3.org/2000/svg"><path fill="#333333" d="M741.433248 982.534606H537.833947V53.916194l203.599301 134.074022zM259.744873 206.205402v539.180863l-43.037656 29.422282V597.677947H196.016664V421.125333L23.86604 501.556672v176.404677H14.762747v304.573257H511.349765V43.983766l-251.604892 162.221636zM100.284155 893.14791l-59.59113 25.935439v-70.627926l59.59113-24.280608v68.973095z m0-99.317403l-59.59113 25.935438v-70.627926l59.59113-24.278887v68.971375z m0-105.936729l-59.59113 25.933718V643.19957l59.59113-24.278887v68.973095z m0-112.561215l-59.59113 25.933718v-70.627926l59.59113-24.278887v68.973095z m71.756377 287.541567L112.449402 888.802688v-70.619326l59.59113-24.285768v68.976536z m0-99.315684L112.449402 789.485284v-70.621045l59.59113-24.285768v68.979975z m0-105.938449L112.449402 683.546835v-70.621045l59.59113-24.285768v68.979975z m0-112.561215L112.449402 570.98734v-70.621045l59.59113-24.284048v68.976535z m217.264561-364.926434l83.593066-55.452332v78.626851l-83.593066 51.315254v-74.489773z m-108.042252 64.970192l83.593065-55.452332v78.626852l-83.593065 51.313533v-74.488053z m0 123.59285l83.593065-55.452331v78.626851l-83.593065 51.315253v-74.489773z m0 124.571644l83.593065-55.455772v78.630292l-83.593065 51.313533V493.267034z m86.109716 273.652681l-83.593065 51.313533V743.745196l83.593065-55.452332v78.626851z m0-124.793549l-83.593065 51.313533v-74.488053l83.593065-55.452331v78.626851z m21.932536-338.399248l83.593066-55.452331v78.626851l-83.593066 51.315253v-74.489773z m0.005161 124.566483l83.591345-55.452331v78.625131l-83.591345 51.318694v-74.491494z m86.109716 273.656122l-83.593065 51.311813V678.773283l83.593065-55.450611v78.626851z m0-124.793549l-83.593065 51.315253v-74.488053l83.593065-55.452331v78.625131zM762.125521 637.40594v345.128666h245.809541V715.205376l-245.809541-77.799436z m108.422416 283.880984l-80.697971-21.10512v-73.24607l80.697971 26.071335v68.279855z m0-120.007956l-80.697971-21.1034v-73.247789l80.697971 26.069614v68.281575z m100.557667 149.388953l-80.69625-21.10512v-73.246069l80.69625 26.071334v68.279855z m0-120.004516l-80.69625-21.10684v-73.247789l80.69625 26.071334v68.283295z" /></svg>