<?xml version="1.0" standalone="no"?><!DOCTYPE svg PUBLIC "-//W3C//DTD SVG 1.1//EN" "http://www.w3.org/Graphics/SVG/1.1/DTD/svg11.dtd"><svg class="icon" width="200px" height="200.00px" viewBox="0 0 1024 1024" version="1.1" xmlns="http://www.w3.org/2000/svg"><path d="M511.786756 511.786756m-511.786756 0a511.786756 511.786756 0 1 0 1023.573511 0 511.786756 511.786756 0 1 0-1023.573511 0Z" fill="#5FEDA6" /><path d="M167.183673 388.531445l-11.94169 2.985423c-2.558934 0.852978-4.691379 2.558934-5.544357 5.117868l-4.26489 11.515202c-2.132445 6.397334-10.662224 7.250312-14.500624 1.705955l-6.823824-10.235735c-1.279467-2.132445-3.838401-3.411912-6.397334-3.8384l-12.36818-0.426489c-6.823823 0-10.235735-8.10329-5.970846-13.221158l7.676802-9.809246c1.705956-2.132445 2.132445-4.691379 1.279467-7.250313l-3.411912-11.941691c-1.705956-6.397334 4.26489-12.36818 10.662224-9.809246l11.515202 4.26489c2.558934 0.852978 5.117868 0.426489 7.676801-0.852978l10.235735-6.823824c5.544357-3.838401 13.221158 0.426489 12.794669 7.250313l-0.852978 12.36818c0 2.558934 0.852978 5.117868 2.985423 6.823823l9.809246 7.676801c5.544357 4.26489 3.838401 12.794669-2.558934 14.500625zM906.289046 470.843815l-11.088713-5.544356c-2.558934-1.279467-5.117868-1.279467-7.676801 0l-10.662224 5.970845c-5.970845 2.985423-12.794669-1.705956-11.941691-8.529779l2.132445-12.36818c0.426489-2.558934-0.426489-5.117868-2.558934-7.250313l-8.956268-8.529779c-4.691379-4.691379-2.132445-12.794669 4.264889-13.647647l12.36818-2.132444c2.558934-0.426489 4.691379-2.132445 5.970846-4.691379l5.117867-11.088713c2.985423-5.970845 11.515202-5.970845 14.500625 0l5.544356 11.088713c1.279467 2.558934 3.411912 3.838401 5.970846 4.26489l12.36818 1.705955c6.823823 0.852978 9.382757 8.956268 4.691378 13.647647l-8.529779 8.52978c-1.705956 1.705956-2.558934 4.691379-2.132445 7.250312l2.132445 11.941691c1.279467 7.676801-5.544357 12.794669-11.515202 9.382757zM800.946272 740.811329l-11.515202-8.956269c-2.558934-1.705956-5.970845-2.558934-8.956268-1.279466l-14.074136 4.691378c-7.676801 2.558934-14.500625-4.691379-11.941691-12.36818l4.691379-13.647647c0.852978-2.985423 0.426489-6.397334-1.279467-8.956268l-8.529779-11.941691c-4.691379-6.397334 0-15.353603 8.10329-15.353602l14.500625 0.426488c2.985423 0 5.970845-1.279467 8.10329-3.8384l8.529779-11.941691c4.691379-6.397334 14.500625-4.691379 17.059559 2.985423l4.26489 14.074135c0.852978 2.985423 3.411912 5.544357 6.397334 6.397335l14.074136 4.691378c7.676801 2.558934 8.956268 12.36818 2.558934 17.059559l-11.941691 8.529779c-2.558934 1.705956-4.26489 4.691379-4.26489 8.10329v14.500625c-0.426489 6.823823-9.809246 11.515202-15.780092 6.823824zM241.819242 161.639317l-6.823823-5.117868c-1.279467-1.279467-3.411912-1.279467-5.117868-0.852978l-8.10329 2.558934c-4.691379 1.279467-8.529779-2.985423-7.250313-7.250312l2.985423-8.10329c0.426489-1.705956 0.426489-3.838401-0.852978-5.117868l-5.117867-7.250312c-2.985423-3.838401 0-9.382757 4.691378-8.956269h8.529779c1.705956 0 3.838401-0.852978 4.691379-2.558933l5.117868-7.250313c2.985423-3.838401 8.529779-2.985423 10.235735 1.705956l2.558934 8.529779c0.426489 1.705956 2.132445 3.411912 3.8384 3.838401l8.10329 2.558934c4.691379 1.279467 5.544357 7.250312 1.279467 10.235735l-7.250312 5.117868c-1.705956 1.279467-2.558934 2.985423-2.558934 4.691378v8.529779c0.426489 5.117868-5.117868 7.676801-8.956268 4.691379zM869.610995 259.305289l-11.941691 2.985423c-2.558934 0.852978-4.691379 2.558934-5.544356 5.117868l-4.26489 11.515202c-2.132445 6.397334-10.662224 7.250312-14.500624 1.705956l-6.823824-10.235736c-1.279467-2.132445-3.838401-3.411912-6.397334-3.8384l-12.36818-0.426489c-6.823823 0-10.235735-8.10329-5.970846-13.221158l7.676802-9.809246c1.705956-2.132445 2.132445-4.691379 1.279467-7.250312l-3.411912-11.941691c-1.705956-6.397334 4.26489-12.36818 10.662224-9.809247l11.515202 4.26489c2.558934 0.852978 5.117868 0.426489 7.676801-0.852978l10.235735-6.823823c5.544357-3.838401 13.221158 0.426489 12.794669 7.250312l-0.852978 12.36818c0 2.558934 0.852978 5.117868 2.985423 6.823823l9.809246 7.676802c5.544357 4.691379 3.838401 12.794669-2.558934 14.500624zM188.934611 661.484382l-10.235736 2.558933c-2.132445 0.426489-3.838401 2.132445-4.691378 4.26489L170.595585 678.117451c-1.705956 5.544357-8.956268 6.397334-12.36818 1.279467l-5.544356-8.956268c-1.279467-1.705956-3.411912-2.985423-5.544357-2.985423l-10.662224-0.426489c-5.544357 0-8.529779-6.823823-5.117867-11.088713l6.397334-8.10329c1.279467-1.705956 1.705956-4.26489 1.279467-6.397335l-2.985423-10.235735c-1.705956-5.544357 3.838401-10.235735 8.956268-8.529779l9.809247 3.838401c2.132445 0.852978 4.691379 0.426489 6.397334-0.852978l8.529779-5.970846c4.691379-3.411912 11.088713 0.426489 10.662224 5.970846l-0.426489 10.662224c0 2.132445 0.852978 4.26489 2.558934 5.970845l8.10329 6.397335c5.117868 4.26489 3.838401 11.515202-1.705955 12.794669zM269.967514 375.736776c-5.117868 0-9.382757-4.26489-9.382758-9.382757v-27.721782c0-5.117868 4.26489-9.382757 9.382758-9.382758 5.117868 0 9.382757 4.26489 9.382757 9.382758v27.721782c0 5.117868-4.26489 9.382757-9.382757 9.382757zM269.967514 449.519367c-5.117868 0-9.382757-4.26489-9.382758-9.382757v-27.721783c0-5.117868 4.26489-9.382757 9.382758-9.382757 5.117868 0 9.382757 4.26489 9.382757 9.382757v27.721783c0 5.544357-4.26489 9.382757-9.382757 9.382757zM320.7197 398.76718h-27.721782c-5.117868 0-9.382757-4.26489-9.382758-9.382757 0-5.117868 4.26489-9.382757 9.382758-9.382757h27.721782c5.117868 0 9.382757 4.26489 9.382757 9.382757 0 5.544357-4.26489 9.382757-9.382757 9.382757zM246.93711 398.76718h-27.721783c-5.117868 0-9.382757-4.26489-9.382757-9.382757 0-5.117868 4.26489-9.382757 9.382757-9.382757h27.721783c5.117868 0 9.382757 4.26489 9.382757 9.382757 0 5.544357-4.26489 9.382757-9.382757 9.382757zM768.533111 522.44898c-5.117868 0-9.382757-4.26489-9.382757-9.382758v-27.721782c0-5.117868 4.26489-9.382757 9.382757-9.382757s9.382757 4.26489 9.382757 9.382757v27.721782c0 5.544357-4.26489 9.382757-9.382757 9.382758zM768.533111 596.658059c-5.117868 0-9.382757-4.26489-9.382757-9.382757v-27.721783c0-5.117868 4.26489-9.382757 9.382757-9.382757s9.382757 4.26489 9.382757 9.382757v27.721783c0 5.117868-4.26489 9.382757-9.382757 9.382757zM819.285298 545.905873h-27.721783c-5.117868 0-9.382757-4.26489-9.382757-9.382758s4.26489-9.382757 9.382757-9.382757h27.721783c5.117868 0 9.382757 4.26489 9.382757 9.382757s-4.26489 9.382757-9.382757 9.382758zM745.502707 545.905873h-27.721782c-5.117868 0-9.382757-4.26489-9.382758-9.382758s4.26489-9.382757 9.382758-9.382757h27.721782c5.117868 0 9.382757 4.26489 9.382757 9.382757s-4.26489 9.382757-9.382757 9.382758z" fill="#52CC8F" /><path d="M398.340691 883.258642L72.503124 542.493961l90.842149-90.842149 234.568929 234.568929L860.228238 232.436485 951.070387 323.278634 398.340691 883.258642z" fill="#FFFFFF" /><path d="M831.226989 64.826322l-108.754686 275.085381-45.634319-17.912536-17.486047-6.823823 108.754685-275.085381c6.823823-17.486047 26.442316-26.015827 43.928363-19.192004 3.838401 1.279467 6.823823 3.411912 9.809247 5.970846 10.662224 8.956268 14.927114 23.883382 9.382757 37.957517z" fill="#E5BFA3" /><path d="M831.226989 64.826322l-108.754686 275.085381-45.634319-17.912536 108.328197-274.232403c5.970845-14.927114 21.324448-23.456893 36.678051-20.897959 10.662224 8.956268 14.927114 23.883382 9.382757 37.957517z" fill="#F9D6B9" /><path d="M722.898792 339.911703l-63.120366-25.162848-72.076635 116.431487 53.31112 113.019575z" fill="#34ABE0" /><path d="M597.511037 952.349854H352.706372c-26.015827 0-47.340275-21.324448-47.340275-47.340275v-351.000416h177.419409l114.725531 398.340691z" fill="#F9D6B9" /><path d="M339.058726 905.009579v-351.000416h-33.26614v351.000416c0 26.015827 21.324448 47.340275 47.340275 47.340275h33.266139c-26.442316 0-47.340275-20.897959-47.340274-47.340275z" fill="#E5BFA3" /><path d="M305.792586 622.673886h284.04165v22.603915H305.792586z" fill="#279FC9" /><path d="M641.012911 428.621408V622.673886H305.792586v-68.664723c0-67.811745 53.737609-123.25531 121.122866-125.387755h214.097459z" fill="#34ABE0" /><path d="M641.012911 501.55102v367.633486H373.177843v-367.633486c0-33.692628 22.603915-61.8409 53.737609-70.370678 6.397334-1.705956 12.794669-2.558934 19.618492-2.558934h121.549355c6.823823 0 13.221158 0.852978 19.618492 2.558934 30.707205 8.529779 53.31112 37.10454 53.31112 70.370678z" fill="#34ABE0" /><path d="M659.778426 314.748855l-57.149521 89.562682c-9.382757 14.927114-26.015827 23.883382-43.928364 23.883382H426.062474v5.970845c0 44.354852 35.398584 81.459392 79.326947 81.885881 36.678051 0.426489 67.811745-23.883382 78.04748-57.57601 19.618492-8.956268 35.398584-24.309871 45.20783-43.501874l47.340275-92.974594-16.20658-7.250312z" fill="#279FC9" /><path d="M474.682216 428.621408h4.691378H426.488963c-67.385256 2.558934-121.122865 57.57601-121.122866 125.387755V622.673886h48.193253v-68.664723c0-67.811745 54.164098-122.828821 121.122866-125.387755z" fill="#279FC9" /><path d="M566.377343 372.751354v63.546855c0 32.413161-26.442316 58.855477-58.855477 58.855477-32.413161 0-58.855477-26.442316-58.855477-58.855477V372.751354h117.710954z" fill="#E5BFA3" /><path d="M379.575177 268.688047m-36.678051 0a36.678051 36.678051 0 1 0 73.356102 0 36.678051 36.678051 0 1 0-73.356102 0Z" fill="#E5BFA3" /><path d="M634.615577 268.688047m-36.678051 0a36.678051 36.678051 0 1 0 73.356102 0 36.678051 36.678051 0 1 0-73.356102 0Z" fill="#E5BFA3" /><path d="M638.880466 164.62474l-263.14369-14.074136v146.712203c0 72.503124 58.855477 131.358601 131.358601 131.358601s131.358601-58.855477 131.358601-131.358601l0.426488-132.638067z" fill="#F9D6B9" /><path d="M507.095377 309.204498c-7.250312 0-13.221158-5.970845-13.221158-13.221158V191.493544h26.442316v104.489796c0 7.250312-5.970845 13.221158-13.221158 13.221158zM428.194919 297.262807V153.536027l-52.458143-2.985423v146.712203c0 72.503124 58.855477 131.358601 131.358601 131.358601 8.956268 0 17.912536-0.852978 26.442316-2.558934-60.134944-11.941691-105.342774-65.252811-105.342774-128.799667z" fill="#E5BFA3" /><path d="M654.660558 159.933361V226.03915c0 5.544357-2.132445 10.235735-5.544356 13.647647-3.838401 3.838401-8.529779 5.970845-14.074136 5.544357-10.662224-0.426489-19.192003-9.382757-19.192004-20.044982v-9.809246c0-8.10329-3.411912-14.927114-8.529779-20.47147a29.001249 29.001249 0 0 0-20.47147-8.529779c-12.36818 0-24.309871 4.26489-34.119117 11.941691-12.36818 10.235735-28.574761 16.206581-45.634319 16.20658-17.486047 0-33.266139-5.970845-45.634319-16.20658l-5.117868-3.838401c-3.411912-2.132445-6.823823-3.838401-10.662224-5.117867-5.970845-2.132445-11.941691-2.985423-17.912536-2.985423-15.780092 0-28.574761 12.794669-28.574761 28.57476V226.03915c0 5.544357-2.132445 10.235735-5.544356 13.647647-3.411912 3.411912-8.529779 5.544357-13.647647 5.544357-10.662224 0-19.618492-8.529779-19.618492-19.618493V159.933361c0-58.002499 46.913786-104.916285 104.916285-104.916285H550.170762c57.57601-0.426489 104.489796 46.913786 104.489796 104.916285z" fill="#5C5E70" /><path d="M533.111204 54.590587c-58.002499 0-104.916285 46.913786-104.916285 104.916285v27.295294h-0.426489c-15.780092 0-28.574761 12.794669-28.574761 28.57476V226.03915c0 5.544357-2.132445 10.235735-5.544356 13.647647-3.411912 3.411912-8.529779 5.544357-13.647647 5.544357-10.662224 0-19.618492-8.529779-19.618492-19.618493V159.933361c0-58.002499 46.913786-104.916285 104.916285-104.916285l67.811745-0.426489z" fill="#474A59" /><path d="M641.012911 869.610995v137.755935c-37.957518 9.809246-77.194502 15.353603-117.710953 16.206581v-55.017076c0-4.26489-1.705956-8.529779-4.691379-11.515202-2.985423-2.985423-6.823823-4.691379-11.515202-4.691379-8.956268 0-16.206581 7.250312-16.206581 16.206581v54.590587c-40.516451-1.705956-80.179925-8.10329-117.710953-18.339025v-135.197002h267.835068z" fill="#5C5E70" /><path d="M553.582674 982.630571v39.663473c-9.809246 0.852978-20.044981 1.279467-30.280716 1.705956v-55.017076c0-4.26489-1.705956-8.529779-4.691379-11.515202-2.985423-2.985423-6.823823-4.691379-11.515202-4.691379h16.206581c16.63307-0.426489 30.280716 13.221158 30.280716 29.854228zM403.458559 869.610995v142.447314c-10.235735-2.132445-20.044981-4.691379-30.280716-7.250312v-135.197002h30.280716z" fill="#474A59" /><path d="M373.177843 572.348188v296.836318H405.164515v-264.849646c0-17.486047-14.500625-31.986672-31.986672-31.986672z" fill="#279FC9" /><path d="M556.568097 323.278634c0 4.691379-0.852978 9.382757-2.132445 14.074136-2.132445 6.823823-5.544357 12.794669-10.235735 17.912536-8.529779 9.382757-20.897959 15.353603-34.545606 15.353603-13.647647 0-26.015827-5.970845-34.545606-15.353603-4.691379-5.117868-8.529779-11.088713-10.235735-17.912536-1.279467-4.26489-2.132445-8.956268-2.132445-14.074136h93.827572z" fill="#FFFFFF" /><path d="M587.701791 271.673469c0-13.221158-10.662224-23.883382-23.883382-23.883382-13.221158 0-23.883382 10.662224-23.883382 23.883382M474.682216 271.673469c0-13.221158-10.662224-23.883382-23.883382-23.883382-13.221158 0-23.883382 10.662224-23.883382 23.883382" fill="#5C5E70" /><path d="M848.713036 52.458142c0 29.001249-23.456893 52.884631-52.884631 52.884632-2.985423 0-5.970845-0.426489-8.956268-0.852978-24.73636-4.26489-43.501874-26.015827-43.501875-52.031654 0-29.001249 23.456893-52.458142 52.458143-52.458142 17.059559 0 32.413161 8.10329 41.795918 20.897959 7.250312 8.529779 11.088713 19.618492 11.088713 31.560183z" fill="#E5BFA3" /><path d="M848.713036 52.458142c0 29.001249-23.456893 52.884631-52.884631 52.884632-2.985423 0-5.970845-0.426489-8.956268-0.852978-6.823823-8.956268-10.662224-20.044981-10.662224-31.986672 0-29.001249 23.456893-52.458142 52.458142-52.458143 2.985423 0 5.970845 0.426489 8.956268 0.852978 7.250312 8.529779 11.088713 19.618492 11.088713 31.560183z" fill="#F9D6B9" /><path d="M651.675135 330.528946l63.973345 26.442316 7.250312-17.059559-63.120366-25.162848" fill="#279FC9" /></svg>